<?xml version="1.0" encoding="utf-8"?>
<!-- Generator: Adobe Illustrator 23.1.1, SVG Export Plug-In . SVG Version: 6.00 Build 0)  -->
<svg version="1.1" id="universiteit-gent" xmlns="http://www.w3.org/2000/svg" xmlns:xlink="http://www.w3.org/1999/xlink" x="0px"
	 y="0px" viewBox="0 0 74.2 56.7" style="enable-background:new 0 0 74.2 56.7;" xml:space="preserve">
<style type="text/css">
	.st0{fill:#FFFFFF;}
</style>
<title>logo-ugent</title>
<rect x="12.1" y="9.9" class="st0" width="1.5" height="9.6"/>
<rect x="9.2" y="9.9" class="st0" width="1.5" height="9.6"/>
<rect x="6.2" y="9.9" class="st0" width="1.5" height="9.6"/>
<rect x="3.3" y="9.9" class="st0" width="1.5" height="9.6"/>
<rect x="15.1" y="9.9" class="st0" width="1.5" height="9.6"/>
<rect x="18.1" y="9.9" class="st0" width="1.5" height="9.6"/>
<rect x="21" y="9.9" class="st0" width="1.5" height="9.6"/>
<rect x="1.7" y="20.9" class="st0" width="22.3" height="1.5"/>
<polygon class="st0" points="22.5,8.4 3.3,8.4 1.8,6.9 24,6.9 "/>
<rect x="0.3" y="23.9" class="st0" width="25.3" height="1.5"/>
<polygon class="st0" points="25.5,4.5 12.9,0 0.3,4.5 0.3,6.1 12.9,1.6 25.5,6.1 "/>
<path class="st0" d="M45,32.4c0.5,0,1,0.1,1.5,0.4v-1.3c-0.5-0.3-1.1-0.4-1.7-0.4c-2,0-3,1.1-3,2.7c0,1.1,0.6,2.2,1.5,2.8l0.9,0.7
	c0.7,0.6,1.1,1,1.1,1.9s-0.7,1.4-1.7,1.4c-0.6,0-1.3-0.2-1.8-0.5v1.3c0.6,0.3,1.2,0.4,1.9,0.4c2,0,3-1.1,3-2.7
	c0-1.1-0.6-2.2-1.5-2.8l-0.8-0.6c-0.7-0.6-1.1-1-1.1-1.9S44,32.4,45,32.4z"/>
<path class="st0" d="M0.3,38.7v-7.3h1.5v7.4c0,1.5,0.5,2,1.6,2s1.6-0.4,1.6-2v-7.4h1.5v7.3c0,2.4-1,3.4-3.1,3.4S0.3,41.1,0.3,38.7z"
	/>
<path class="st0" d="M8.4,31.3h1.7l3.3,8.3c-0.1-0.9-0.2-1.9-0.2-2.8v-5.5h1.4v10.5h-1.7l-3.4-8.4c0.1,0.9,0.2,1.9,0.3,2.8v5.5H8.4
	V31.3z"/>
<path class="st0" d="M16.7,31.3h1.5v10.5h-1.5V31.3z"/>
<path class="st0" d="M19.6,31.3h1.5l1.3,5.4c0.2,0.8,0.4,2.2,0.6,3.3c0.2-1.1,0.4-2.5,0.6-3.3l1.3-5.4h1.5l-2.7,10.5h-1.5L19.6,31.3
	z"/>
<path class="st0" d="M27.8,31.3h4.9v1.3h-3.5v3.2H32V37h-2.8v3.5h3.4v1.2h-4.9C27.7,41.7,27.8,31.3,27.8,31.3z"/>
<path class="st0" d="M34.4,31.3h2.4c1.9,0,3.3,0.7,3.3,3.1c0.2,1.2-0.6,2.4-1.8,2.8l2.2,4.5h-1.7l-2-4.3h-1v4.3h-1.4V31.3z
	 M35.9,32.6v3.7h0.8c1.2,0,1.9-0.3,1.9-1.9s-0.8-1.8-1.9-1.8H35.9z"/>
<path class="st0" d="M48.6,31.3h1.5v10.5h-1.5V31.3z"/>
<path class="st0" d="M51.4,31.3h6v1.3h-2.3v9.2h-1.5v-9.2h-2.2V31.3z"/>
<path class="st0" d="M58.8,31.3h4.9v1.3h-3.4v3.2h2.8V37h-2.8v3.5h3.4v1.2h-4.9V31.3z"/>
<path class="st0" d="M65.4,31.3h1.5v10.5h-1.5V31.3z"/>
<path class="st0" d="M68.2,31.3h6v1.3h-2.3v9.2h-1.5v-9.2h-2.2V31.3z"/>
<path class="st0" d="M0,51.3c0-4.1,1.1-5.4,3.8-5.4c0.7,0,1.4,0.1,2,0.4v1.4c-0.6-0.3-1.2-0.5-1.8-0.5c-1.8,0-2.4,0.6-2.4,4.1
	s0.5,4.2,2,4.2c0.4,0,0.8-0.1,1.1-0.2v-3.5H3.1v-1.3h3v5.7c-0.8,0.3-1.7,0.5-2.6,0.5C0.6,56.8,0,55.3,0,51.3z"/>
<path class="st0" d="M7.9,46.1h4.9v1.3H9.4v3.2h2.8v1.2H9.4v3.5h3.4v1.3H7.9V46.1z"/>
<path class="st0" d="M14.5,46.1h1.7l3.3,8.4c-0.1-0.9-0.2-1.9-0.2-2.8v-5.6h1.4v10.5H19l-3.4-8.4c0.1,0.9,0.2,1.9,0.3,2.8v5.5h-1.4
	V46.1z"/>
<path class="st0" d="M22.1,46.1h6v1.3h-2.3v9.2h-1.5v-9.3h-2.2V46.1z"/>
</svg>
