<?xml version="1.0" encoding="utf-8"?>
<!-- Generator: Adobe Illustrator 23.1.1, SVG Export Plug-In . SVG Version: 6.00 Build 0)  -->
<svg version="1.1" id="logo-uz-gent" xmlns="http://www.w3.org/2000/svg" xmlns:xlink="http://www.w3.org/1999/xlink" x="0px"
	 y="0px" viewBox="0 0 176.8 60" style="enable-background:new 0 0 176.8 60;" xml:space="preserve">
<style type="text/css">
	.st0{fill:#FFFFFF;stroke:#FFFFFF;stroke-miterlimit:10;}
</style>
<title>logo-uzgent</title>
<path class="st0" d="M53.9,59.6H18.5C8.3,59.6,0,51.3,0,41.1V0h19.9v38.3c0,0.8,0.6,1.4,1.4,1.4H34V0h19.9v17h24.7L53.9,41.8V59.6z
	 M2.9,2.9v38.2c0,8.6,7,15.6,15.6,15.6H51V40.5l20.6-20.6H51v-17H36.9v39.7H21.3c-2.4,0-4.3-1.9-4.3-4.3V2.9H2.9z"/>
<polygon class="st0" points="105,59.6 102,59.6 102,42.6 77.3,42.6 102,17.9 102,0 105,0 105,19 84.3,39.7 105,39.7 "/>
<path class="st0" d="M121.2,23.7V9.1h3v14.8c0,3.1,1.1,4,3.2,4c2.1,0,3.2-0.9,3.2-4V9.1h3v14.6c0,4.7-2,6.7-6.2,6.7
	S121.2,28.5,121.2,23.7z"/>
<path class="st0" d="M137.1,27.9l7.2-16.4h-7V9.1h10.3v2.1l-7.2,16.3h7.4V30h-10.7V27.9z"/>
<path class="st0" d="M120.5,49.1c0-8.3,2.2-10.9,7.6-10.9c1.4,0,2.7,0.3,3.9,0.9v2.7c-1.1-0.6-2.4-0.9-3.7-1c-3.5,0-4.8,1.3-4.8,8.2
	s1,8.3,3.9,8.3c0.8,0,1.6-0.1,2.3-0.3v-6.9h-3.1v-2.5h6.1v11.3c-1.6,0.7-3.4,1.1-5.2,1.1C121.9,60,120.5,57,120.5,49.1z"/>
<path class="st0" d="M136.4,38.7h9.8v2.5h-6.8v6.4h5.5v2.5h-5.5v7h6.8v2.5h-9.8V38.7z"/>
<path class="st0" d="M149.7,38.7h3.4l6.6,16.7c-0.2-1.9-0.4-3.7-0.4-5.6V38.7h2.8v21h-3.4L152,42.8c0.3,1.9,0.5,3.8,0.5,5.7v11.1
	h-2.8V38.7z"/>
<path class="st0" d="M164.8,38.7h12v2.5h-4.5v18.5h-3V41.2h-4.5V38.7z"/>
</svg>
