<svg id="logo-uz-gent" xmlns="http://www.w3.org/2000/svg" viewBox="0 0 176.8 60">
  <defs>
    <style>
      .cls-1 {
        fill: #1e64c8;
      }
    </style>
  </defs>
  <title>logo-uzgent</title><path class="cls-1" d="M53.9,59.6H18.5A18.52,18.52,0,0,1,0,41.1V0H19.9V38.3a1.43,1.43,0,0,0,1.4,1.4H34V0H53.9V17H78.6L53.9,41.8ZM2.9,2.9V41.1A15.62,15.62,0,0,0,18.5,56.7H51V40.5L71.6,19.9H51V2.9H36.9V42.6H21.3A4.33,4.33,0,0,1,17,38.3V2.9Z"/><polygon class="cls-1" points="105 59.6 102 59.6 102 42.6 77.3 42.6 102 17.9 102 0 105 0 105 19 84.3 39.7 105 39.7 105 59.6"/><path class="cls-1" d="M121.2,23.7V9.1h3V23.9c0,3.1,1.1,4,3.2,4s3.2-.9,3.2-4V9.1h3V23.7c0,4.7-2,6.7-6.2,6.7S121.2,28.5,121.2,23.7Z"/><path class="cls-1" d="M137.1,27.9l7.2-16.4h-7V9.1h10.3v2.1l-7.2,16.3h7.4V30H137.1V27.9Z"/><path class="cls-1" d="M120.5,49.1c0-8.3,2.2-10.9,7.6-10.9a8,8,0,0,1,3.9.9v2.7a8.61,8.61,0,0,0-3.7-1c-3.5,0-4.8,1.3-4.8,8.2s1,8.3,3.9,8.3a7.12,7.12,0,0,0,2.3-.3V50.1h-3.1V47.6h6.1V58.9a12.61,12.61,0,0,1-5.2,1.1C121.9,60,120.5,57,120.5,49.1Z"/><path class="cls-1" d="M136.4,38.7h9.8v2.5h-6.8v6.4h5.5v2.5h-5.5v7h6.8v2.5h-9.8Z"/><path class="cls-1" d="M149.7,38.7h3.4l6.6,16.7a49.17,49.17,0,0,1-.4-5.6V38.7h2.8v21h-3.4L152,42.8a33.59,33.59,0,0,1,.5,5.7V59.6h-2.8Z"/><path class="cls-1" d="M164.8,38.7h12v2.5h-4.5V59.7h-3V41.2h-4.5Z"/></svg>
