<svg id="universiteit-gent" xmlns="http://www.w3.org/2000/svg" viewBox="0 0 74.2 56.7">
	<defs>
		<style>
			.cls-1 {
				fill: #1e64c8;
			}
		</style>
	</defs>
	<title>logo-ugent</title><rect class="cls-1" x="12.1" y="9.9" width="1.5" height="9.6"/><rect class="cls-1" x="9.2" y="9.9" width="1.5" height="9.6"/><rect class="cls-1" x="6.2" y="9.9" width="1.5" height="9.6"/><rect class="cls-1" x="3.3" y="9.9" width="1.5" height="9.6"/><rect class="cls-1" x="15.1" y="9.9" width="1.5" height="9.6"/><rect class="cls-1" x="18.1" y="9.9" width="1.5" height="9.6"/><rect class="cls-1" x="21" y="9.9" width="1.5" height="9.6"/><rect class="cls-1" x="1.7" y="20.9" width="22.3" height="1.5"/><polygon class="cls-1" points="22.5 8.4 3.3 8.4 1.8 6.9 24 6.9 22.5 8.4"/><rect class="cls-1" x="0.3" y="23.9" width="25.3" height="1.5"/><polygon class="cls-1" points="25.5 4.5 12.9 0 0.3 4.5 0.3 6.1 12.9 1.6 25.5 6.1 25.5 4.5"/><path
		class="cls-1"
		d="M45,32.4a2.7,2.7,0,0,1,1.5.4V31.5a3.53,3.53,0,0,0-1.7-.4c-2,0-3,1.1-3,2.7a3.46,3.46,0,0,0,1.5,2.8l.9.7c.7.6,1.1,1,1.1,1.9s-.7,1.4-1.7,1.4a3.2,3.2,0,0,1-1.8-.5v1.3a3.83,3.83,0,0,0,1.9.4c2,0,3-1.1,3-2.7a3.46,3.46,0,0,0-1.5-2.8l-.8-.6c-.7-.6-1.1-1-1.1-1.9S44,32.4,45,32.4Z"/><path class="cls-1" d="M.3,38.7V31.4H1.8v7.4c0,1.5.5,2,1.6,2s1.6-.4,1.6-2V31.4H6.5v7.3c0,2.4-1,3.4-3.1,3.4S.3,41.1.3,38.7Z"/><path class="cls-1" d="M8.4,31.3h1.7l3.3,8.3a26.35,26.35,0,0,1-.2-2.8V31.3h1.4V41.8H12.9L9.5,33.4a26.6,26.6,0,0,1,.3,2.8v5.5H8.4Z"/><path class="cls-1" d="M16.7,31.3h1.5V41.8H16.7Z"/><path class="cls-1" d="M19.6,31.3h1.5l1.3,5.4c.2.8.4,2.2.6,3.3.2-1.1.4-2.5.6-3.3l1.3-5.4h1.5L23.7,41.8H22.2Z"/><path class="cls-1" d="M27.8,31.3h4.9v1.3H29.2v3.2H32V37H29.2v3.5h3.4v1.2H27.7l.1-10.4Z"/><path class="cls-1" d="M34.4,31.3h2.4c1.9,0,3.3.7,3.3,3.1a2.57,2.57,0,0,1-1.8,2.8l2.2,4.5H38.8l-2-4.3h-1v4.3H34.4V31.3Zm1.5,1.3v3.7h.8c1.2,0,1.9-.3,1.9-1.9s-.8-1.8-1.9-1.8Z"/><path class="cls-1" d="M48.6,31.3h1.5V41.8H48.6Z"/><path class="cls-1" d="M51.4,31.3h6v1.3H55.1v9.2H53.6V32.6H51.4Z"/><path class="cls-1" d="M58.8,31.3h4.9v1.3H60.3v3.2h2.8V37H60.3v3.5h3.4v1.2H58.8Z"/><path class="cls-1" d="M65.4,31.3h1.5V41.8H65.4Z"/><path class="cls-1" d="M68.2,31.3h6v1.3H71.9v9.2H70.4V32.6H68.2Z"/><path class="cls-1" d="M0,51.3c0-4.1,1.1-5.4,3.8-5.4a5.44,5.44,0,0,1,2,.4v1.4A4.28,4.28,0,0,0,4,47.2c-1.8,0-2.4.6-2.4,4.1s.5,4.2,2,4.2a2.68,2.68,0,0,0,1.1-.2V51.8H3.1V50.5h3v5.7a6.49,6.49,0,0,1-2.6.5C.6,56.8,0,55.3,0,51.3Z"/><path class="cls-1" d="M7.9,46.1h4.9v1.3H9.4v3.2h2.8v1.2H9.4v3.5h3.4v1.3H7.9Z"/><path class="cls-1" d="M14.5,46.1h1.7l3.3,8.4a26.35,26.35,0,0,1-.2-2.8V46.1h1.4V56.6H19l-3.4-8.4a26.6,26.6,0,0,1,.3,2.8v5.5H14.5Z"/><path class="cls-1" d="M22.1,46.1h6v1.3H25.8v9.2H24.3V47.3H22.1Z"/></svg>
